<svg height="512" viewBox="0 0 64 64" width="512" xmlns="http://www.w3.org/2000/svg"><g id="outline"><path d="m31.524 38.5a6.02 6.02 0 1 0 -6.02 6.02 6.027 6.027 0 0 0 6.02-6.02zm-10.04 0a4.02 4.02 0 1 1 4.02 4.02 4.024 4.024 0 0 1 -4.02-4.02z"/><path d="m4.065 46.5a11.982 11.982 0 0 1 3.164-9.61 11.84 11.84 0 0 1 9.339-3.572c.018 0 .117.013.133.013.07.01.139.02.208.025a1 1 0 0 0 1.06-.792 9.1 9.1 0 0 1 2.485-4.614.871.871 0 0 0 .12-.146 6.743 6.743 0 0 1 4.666-1.794 8.516 8.516 0 0 1 5.943 2.547l4.26 4.26c3.081 3.082 3.4 7.794.756 10.6a1.025 1.025 0 0 0 -.149.123 8.938 8.938 0 0 1 -3.384 2.142l.668 1.884a10.916 10.916 0 0 0 3.978-2.461.992.992 0 0 0 .165-.133c3.405-3.4 3.3-9.1-.107-13.012l17.917-18.99.838-.652.618.618a1 1 0 1 0 1.414-1.414l-.441-.441 1.6-1.248.973.973a1 1 0 1 0 1.414-1.414l-.8-.8.7-.547a1 1 0 0 0 .093-1.5l-4.26-4.259a.983.983 0 0 0 -.758-.286 1 1 0 0 0 -.727.384l-.547.7-.8-.8a1 1 0 0 0 -1.414 1.414l.974.974-1.247 1.6-.441-.442a1 1 0 0 0 -1.415 1.415l.619.618-.648.833-19 17.923a10.453 10.453 0 0 0 -6.792-2.609 8.707 8.707 0 0 0 -6.217 2.513.987.987 0 0 0 -.128.16 11.04 11.04 0 0 0 -2.671 4.617 13.809 13.809 0 0 0 -10.442 4.2 13.955 13.955 0 0 0 -3.707 11.2zm52.769-41.992 2.658 2.658-4.8 3.731-1.592-1.591zm-5.085 6.276 1.468 1.466-17.238 18.275-2.5-2.5z"/><path d="m14.153 39.923-1.416 1.415a2.988 2.988 0 0 0 0 4.249l2.56 2.56 1.414-1.414-2.564-2.565a.986.986 0 0 1 0-1.411l.713-.713 5.663 5.663 1.414-1.414-6.37-6.37a1 1 0 0 0 -1.414 0z"/><path d="m62 61v-11a1 1 0 0 0 -1-1h-58a1 1 0 0 0 -1 1v11a1 1 0 0 0 1 1h58a1 1 0 0 0 1-1zm-2-1h-56v-9h5v5h2v-5h2v5h2v-5h5v5h2v-5h2v5h2v-5h2v5h2v-5h5v5h2v-5h2v5h2v-5h5v5h2v-5h2v5h2v-5h2v5h2v-5h4z"/><path d="m57 44v-9.919l3.375 2.7 1.25-1.562-5-4a1 1 0 0 0 -1.625.781v9.405a5.075 5.075 0 0 0 -2-.405c-2.243 0-4 1.318-4 3s1.757 3 4 3 4-1.318 4-3zm-6 0c0-.408.779-1 2-1s2 .592 2 1-.779 1-2 1-2-.592-2-1z"/><path d="m6 18c2.243 0 4-1.318 4-3v-7h10v4.4a5.075 5.075 0 0 0 -2-.4c-2.243 0-4 1.318-4 3s1.757 3 4 3 4-1.318 4-3v-12a1 1 0 0 0 -1-1h-12a1 1 0 0 0 -1 1v9.4a5.075 5.075 0 0 0 -2-.4c-2.243 0-4 1.318-4 3s1.757 3 4 3zm12-2c-1.221 0-2-.592-2-1s.779-1 2-1 2 .592 2 1-.779 1-2 1zm-8-12h10v2h-10zm-4 10c1.221 0 2 .592 2 1s-.779 1-2 1-2-.592-2-1 .779-1 2-1z"/></g></svg>