<svg xmlns="http://www.w3.org/2000/svg" version="1.1" xmlns:xlink="http://www.w3.org/1999/xlink" width="512" height="512" x="0" y="0" viewBox="0 0 511.976 511.976" style="enable-background:new 0 0 512 512" xml:space="preserve"><g><path d="M501.94 374.42c-68.448-11.264-99.296-81.376-100.544-84.352-.096-.192-.16-.384-.288-.576-3.488-7.104-4.32-12.96-2.4-17.408 3.744-8.768 18.08-13.312 27.552-16.32 2.752-.864 5.344-1.696 7.488-2.528 9.344-3.68 16-7.68 20.416-12.192 5.248-5.408 6.272-10.592 6.208-13.952-.16-8.192-6.432-15.488-16.448-19.04-3.36-1.376-7.232-2.112-11.136-2.112-2.656 0-6.624.352-10.368 2.112-8 3.744-15.168 5.792-21.344 6.08-3.264-.16-5.568-.864-7.072-1.536.192-3.2.384-6.496.608-9.888l.096-1.472c2.208-34.656 4.928-77.76-6.528-103.36-7.84-17.536-18.368-32.608-31.328-44.832-10.848-10.24-23.456-18.56-37.472-24.704-24.352-10.752-47.072-12.352-58.464-12.352h-1.28c-3.168.032-8.32.096-8.8.096-11.36 0-34.112 1.6-58.528 12.352-13.984 6.144-26.528 14.432-37.344 24.672-12.896 12.224-23.392 27.264-31.2 44.736-11.456 25.568-8.736 68.672-6.56 103.296v.064c.224 3.712.48 7.584.704 11.36-1.664.736-4.384 1.568-8.384 1.568-6.464 0-14.144-2.048-22.816-6.112-2.56-1.184-5.472-1.792-8.672-1.792-5.152 0-10.624 1.504-15.328 4.288-5.952 3.488-9.792 8.384-10.848 13.856-.672 3.584-.64 10.72 7.296 17.952 4.384 3.968 10.784 7.648 19.072 10.912 2.176.864 4.768 1.664 7.488 2.528 9.472 3.008 23.84 7.552 27.584 16.32 1.888 4.448 1.056 10.304-2.432 17.408a4.533 4.533 0 0 0-.256.576c-.896 2.048-9.056 20.448-25.792 39.872-9.504 11.04-19.968 20.288-31.104 27.456-13.6 8.768-28.288 14.464-43.68 16.992-6.048.992-10.368 6.368-10.016 12.48.096 1.76.512 3.52 1.248 5.216v.032c2.464 5.728 8.128 10.56 17.344 14.816 11.264 5.216 28.096 9.6 50.08 13.024 1.12 2.112 2.272 7.392 3.072 11.008.832 3.84 1.696 7.808 2.944 12 1.344 4.544 4.8 9.984 13.728 9.984 3.392 0 7.264-.768 11.776-1.632 6.592-1.28 15.616-3.04 26.848-3.04 6.24 0 12.704.544 19.2 1.632 12.544 2.08 23.36 9.696 35.872 18.528 18.304 12.928 39.04 27.552 70.72 27.552.864 0 1.728-.032 2.592-.096a62.21 62.21 0 0 0 3.68.096c31.68 0 52.416-14.624 70.72-27.52l.032-.032c12.512-8.8 23.328-16.416 35.872-18.496 6.496-1.088 12.96-1.632 19.2-1.632 10.752 0 19.264 1.376 26.848 2.848 4.96.96 8.8 1.44 11.776 1.44h.576c6.528 0 11.328-3.584 13.152-9.824 1.216-4.128 2.08-7.968 2.944-11.904.736-3.392 1.952-8.832 3.04-10.944 21.984-3.456 38.816-7.808 50.08-13.024 9.184-4.256 14.848-9.088 17.312-14.784.736-1.696 1.184-3.456 1.28-5.28.352-6.048-3.968-11.456-10.016-12.416z" fill="#ffffff" opacity="1" data-original="#000000"></path></g></svg>