<svg xmlns="http://www.w3.org/2000/svg" version="1.1" xmlns:xlink="http://www.w3.org/1999/xlink" width="512" height="512" x="0" y="0" viewBox="0 0 186.845 186.845" style="enable-background:new 0 0 512 512" xml:space="preserve" class=""><g><path d="M128.875 120.962c-31.094-14.37-74.616-8.014-76.453-7.737a7.5 7.5 0 1 0 2.24 14.832c.406-.062 40.867-5.982 67.92 6.521a7.469 7.469 0 0 0 3.142.694 7.501 7.501 0 0 0 3.151-14.31zM137.614 93.953c-35.313-16.319-84.833-9.087-86.924-8.772a7.498 7.498 0 0 0-6.294 8.532 7.502 7.502 0 0 0 8.531 6.301c.468-.071 47.206-6.857 78.394 7.556a7.475 7.475 0 0 0 3.142.694 7.502 7.502 0 0 0 3.151-14.311zM143.49 65.736c-39.006-18.027-93.79-10.028-96.103-9.679-4.094.619-6.911 4.438-6.294 8.532s4.44 6.919 8.531 6.3c.523-.079 52.691-7.657 87.573 8.463a7.501 7.501 0 0 0 6.293-13.616z" fill="#ffffff" opacity="1" data-original="#000000"></path><path d="M93.423.001C41.909.001 0 41.909 0 93.42c0 51.514 41.909 93.424 93.423 93.424 51.513 0 93.422-41.91 93.422-93.424 0-51.511-41.909-93.419-93.422-93.419zm0 171.843C50.18 171.844 15 136.664 15 93.42 15 50.179 50.18 15 93.423 15c43.242 0 78.422 35.179 78.422 78.42 0 43.244-35.18 78.424-78.422 78.424z" fill="#ffffff" opacity="1" data-original="#000000"></path></g></svg>