<svg xmlns="http://www.w3.org/2000/svg" xmlns:xlink="http://www.w3.org/1999/xlink" width="500" zoomAndPan="magnify" viewBox="0 0 375 374.999991" height="500" preserveAspectRatio="xMidYMid meet" version="1.0"><defs><g/><clipPath id="1426f0689b"><path d="M 78.277344 172.078125 L 298.222656 172.078125 L 298.222656 197.695312 L 78.277344 197.695312 Z M 78.277344 172.078125 " clip-rule="nonzero"/></clipPath></defs><path stroke-linecap="butt" transform="matrix(0.00181951, -0.749998, 0.749998, 0.00181951, 187.12366, 259.034016)" fill="none" stroke-linejoin="miter" d="M -0.000303268 0.501789 L 206.099269 0.501788 " stroke="#000000" stroke-width="1" stroke-opacity="1" stroke-miterlimit="4"/><g clip-path="url(#1426f0689b)"><path fill="#ffffff" d="M 78.277344 172.078125 L 298.222656 172.078125 L 298.222656 197.695312 L 78.277344 197.695312 Z M 78.277344 172.078125 " fill-opacity="1" fill-rule="nonzero"/></g><g fill="#000000" fill-opacity="1"><g transform="translate(118.979162, 189.572433)"><g><path d="M 2.75 0.09375 C 2.164062 0.09375 1.625 -0.03125 1.125 -0.28125 C 0.632812 -0.539062 0.234375 -0.898438 -0.078125 -1.359375 L 0.5625 -2.09375 C 1.125 -1.257812 1.859375 -0.84375 2.765625 -0.84375 C 4.023438 -0.84375 4.65625 -1.585938 4.65625 -3.078125 L 4.65625 -9.234375 L 0.9375 -9.234375 L 0.9375 -10.171875 L 5.703125 -10.171875 L 5.703125 -3.125 C 5.703125 -2.0625 5.453125 -1.257812 4.953125 -0.71875 C 4.460938 -0.175781 3.726562 0.09375 2.75 0.09375 Z M 2.75 0.09375 "/></g></g></g><g fill="#000000" fill-opacity="1"><g transform="translate(130.888117, 189.572433)"><g><path d="M 6.109375 0.09375 C 5.097656 0.09375 4.179688 -0.128906 3.359375 -0.578125 C 2.546875 -1.035156 1.90625 -1.65625 1.4375 -2.4375 C 0.976562 -3.226562 0.75 -4.109375 0.75 -5.078125 C 0.75 -6.054688 0.976562 -6.9375 1.4375 -7.71875 C 1.90625 -8.507812 2.546875 -9.128906 3.359375 -9.578125 C 4.179688 -10.035156 5.097656 -10.265625 6.109375 -10.265625 C 7.109375 -10.265625 8.015625 -10.039062 8.828125 -9.59375 C 9.640625 -9.144531 10.273438 -8.523438 10.734375 -7.734375 C 11.203125 -6.941406 11.4375 -6.054688 11.4375 -5.078125 C 11.4375 -4.109375 11.203125 -3.226562 10.734375 -2.4375 C 10.273438 -1.644531 9.640625 -1.023438 8.828125 -0.578125 C 8.015625 -0.128906 7.109375 0.09375 6.109375 0.09375 Z M 6.109375 -0.875 C 6.910156 -0.875 7.632812 -1.054688 8.28125 -1.421875 C 8.925781 -1.785156 9.429688 -2.285156 9.796875 -2.921875 C 10.171875 -3.566406 10.359375 -4.285156 10.359375 -5.078125 C 10.359375 -5.878906 10.171875 -6.597656 9.796875 -7.234375 C 9.429688 -7.878906 8.925781 -8.382812 8.28125 -8.75 C 7.632812 -9.113281 6.910156 -9.296875 6.109375 -9.296875 C 5.296875 -9.296875 4.5625 -9.113281 3.90625 -8.75 C 3.257812 -8.382812 2.75 -7.878906 2.375 -7.234375 C 2 -6.597656 1.8125 -5.878906 1.8125 -5.078125 C 1.8125 -4.285156 2 -3.566406 2.375 -2.921875 C 2.75 -2.285156 3.257812 -1.785156 3.90625 -1.421875 C 4.5625 -1.054688 5.296875 -0.875 6.109375 -0.875 Z M 6.109375 -0.875 "/></g></g></g><g fill="#000000" fill-opacity="1"><g transform="translate(147.704666, 189.572433)"><g><path d="M 4.46875 0.09375 C 3.707031 0.09375 2.976562 -0.0234375 2.28125 -0.265625 C 1.59375 -0.515625 1.0625 -0.835938 0.6875 -1.234375 L 1.109375 -2.0625 C 1.472656 -1.695312 1.957031 -1.398438 2.5625 -1.171875 C 3.175781 -0.941406 3.8125 -0.828125 4.46875 -0.828125 C 5.375 -0.828125 6.050781 -0.992188 6.5 -1.328125 C 6.957031 -1.660156 7.1875 -2.09375 7.1875 -2.625 C 7.1875 -3.03125 7.0625 -3.351562 6.8125 -3.59375 C 6.570312 -3.84375 6.269531 -4.03125 5.90625 -4.15625 C 5.550781 -4.289062 5.054688 -4.4375 4.421875 -4.59375 C 3.648438 -4.78125 3.035156 -4.960938 2.578125 -5.140625 C 2.128906 -5.328125 1.742188 -5.601562 1.421875 -5.96875 C 1.097656 -6.34375 0.9375 -6.84375 0.9375 -7.46875 C 0.9375 -7.976562 1.070312 -8.441406 1.34375 -8.859375 C 1.613281 -9.285156 2.023438 -9.625 2.578125 -9.875 C 3.140625 -10.132812 3.835938 -10.265625 4.671875 -10.265625 C 5.253906 -10.265625 5.820312 -10.179688 6.375 -10.015625 C 6.9375 -9.859375 7.421875 -9.640625 7.828125 -9.359375 L 7.46875 -8.5 C 7.039062 -8.78125 6.582031 -8.988281 6.09375 -9.125 C 5.613281 -9.269531 5.140625 -9.34375 4.671875 -9.34375 C 3.785156 -9.34375 3.113281 -9.171875 2.65625 -8.828125 C 2.207031 -8.484375 1.984375 -8.039062 1.984375 -7.5 C 1.984375 -7.09375 2.109375 -6.765625 2.359375 -6.515625 C 2.609375 -6.265625 2.914062 -6.070312 3.28125 -5.9375 C 3.65625 -5.8125 4.160156 -5.671875 4.796875 -5.515625 C 5.546875 -5.335938 6.148438 -5.15625 6.609375 -4.96875 C 7.066406 -4.789062 7.453125 -4.519531 7.765625 -4.15625 C 8.085938 -3.800781 8.25 -3.3125 8.25 -2.6875 C 8.25 -2.175781 8.109375 -1.707031 7.828125 -1.28125 C 7.554688 -0.863281 7.132812 -0.53125 6.5625 -0.28125 C 5.988281 -0.03125 5.289062 0.09375 4.46875 0.09375 Z M 4.46875 0.09375 "/></g></g></g><g fill="#000000" fill-opacity="1"><g transform="translate(161.268849, 189.572433)"><g><path d="M 10.15625 -10.171875 L 10.15625 0 L 9.09375 0 L 9.09375 -4.6875 L 2.734375 -4.6875 L 2.734375 0 L 1.65625 0 L 1.65625 -10.171875 L 2.734375 -10.171875 L 2.734375 -5.640625 L 9.09375 -5.640625 L 9.09375 -10.171875 Z M 10.15625 -10.171875 "/></g></g></g><g fill="#000000" fill-opacity="1"><g transform="translate(177.707891, 189.572433)"><g/></g></g><g fill="#000000" fill-opacity="1"><g transform="translate(186.146678, 189.572433)"><g><path d="M 8.0625 -5.25 C 8.726562 -5.101562 9.242188 -4.8125 9.609375 -4.375 C 9.972656 -3.945312 10.15625 -3.394531 10.15625 -2.71875 C 10.15625 -1.84375 9.832031 -1.171875 9.1875 -0.703125 C 8.539062 -0.234375 7.585938 0 6.328125 0 L 1.65625 0 L 1.65625 -10.171875 L 6.046875 -10.171875 C 7.179688 -10.171875 8.0625 -9.941406 8.6875 -9.484375 C 9.3125 -9.035156 9.625 -8.394531 9.625 -7.5625 C 9.625 -7 9.484375 -6.519531 9.203125 -6.125 C 8.929688 -5.726562 8.550781 -5.4375 8.0625 -5.25 Z M 2.734375 -9.28125 L 2.734375 -5.59375 L 5.96875 -5.59375 C 6.789062 -5.59375 7.425781 -5.75 7.875 -6.0625 C 8.320312 -6.375 8.546875 -6.832031 8.546875 -7.4375 C 8.546875 -8.039062 8.320312 -8.5 7.875 -8.8125 C 7.425781 -9.125 6.789062 -9.28125 5.96875 -9.28125 Z M 6.328125 -0.890625 C 7.234375 -0.890625 7.914062 -1.039062 8.375 -1.34375 C 8.84375 -1.65625 9.078125 -2.140625 9.078125 -2.796875 C 9.078125 -4.066406 8.160156 -4.703125 6.328125 -4.703125 L 2.734375 -4.703125 L 2.734375 -0.890625 Z M 6.328125 -0.890625 "/></g></g></g><g fill="#000000" fill-opacity="1"><g transform="translate(201.729072, 189.572433)"><g><path d="M 1.65625 -10.171875 L 2.734375 -10.171875 L 2.734375 -0.9375 L 8.421875 -0.9375 L 8.421875 0 L 1.65625 0 Z M 1.65625 -10.171875 "/></g></g></g><g fill="#000000" fill-opacity="1"><g transform="translate(214.915749, 189.572433)"><g><path d="M 8.03125 -2.71875 L 2.375 -2.71875 L 1.140625 0 L 0.03125 0 L 4.671875 -10.171875 L 5.734375 -10.171875 L 10.390625 0 L 9.25 0 Z M 7.640625 -3.59375 L 5.203125 -9.046875 L 2.765625 -3.59375 Z M 7.640625 -3.59375 "/></g></g></g><g fill="#000000" fill-opacity="1"><g transform="translate(229.960924, 189.572433)"><g><path d="M 4.8125 -4.78125 L 2.734375 -2.671875 L 2.734375 0 L 1.65625 0 L 1.65625 -10.171875 L 2.734375 -10.171875 L 2.734375 -4.03125 L 8.703125 -10.171875 L 9.9375 -10.171875 L 5.53125 -5.5625 L 10.25 0 L 8.96875 0 Z M 4.8125 -4.78125 "/></g></g></g><g fill="#000000" fill-opacity="1"><g transform="translate(244.91898, 189.572433)"><g><path d="M 4.8125 -4.78125 L 2.734375 -2.671875 L 2.734375 0 L 1.65625 0 L 1.65625 -10.171875 L 2.734375 -10.171875 L 2.734375 -4.03125 L 8.703125 -10.171875 L 9.9375 -10.171875 L 5.53125 -5.5625 L 10.25 0 L 8.96875 0 Z M 4.8125 -4.78125 "/></g></g></g></svg>